<?xml version="1.0" encoding="utf-8"?>
<!-- Generator: Adobe Illustrator 22.1.0, SVG Export Plug-In . SVG Version: 6.00 Build 0)  -->
<svg version="1.1" id="圖層_1" xmlns="http://www.w3.org/2000/svg" xmlns:xlink="http://www.w3.org/1999/xlink" x="0px" y="0px"
	 viewBox="0 0 240.9 237.9" style="enable-background:new 0 0 240.9 237.9;" xml:space="preserve">
<style type="text/css">
	.st0{fill:#57C3FF;}
	.st1{fill:none;stroke:#B3E8FF;stroke-width:6.3287;stroke-miterlimit:10;}
	.st2{fill:#0D3C47;}
	.st3{fill:#A4DFFF;}
	.st4{fill:#1F78AA;}
	.st5{fill:#FFFFFF;}
	.st6{fill:#D13737;}
	.st7{fill:none;stroke:#36C5D8;stroke-width:3.8627;stroke-miterlimit:10;}
</style>
<g>
	<path class="st0" d="M36.4,85.9v86.6l76.3,44.1l75.7-43.7V88.1C188.4,88.1,133.3,61.7,36.4,85.9z"/>
	<path class="st1" d="M50.5,86.2v80.1l62.1,35.9l61.7-35.6V88C174.3,88,129.4,66.4,50.5,86.2z"/>
	<polygon class="st2" points="183.4,84.5 183.4,171.4 112.7,212.2 42,171.4 42,84.5 29.8,84.5 29.8,178.4 112.7,226.2 195.6,178.4 
		195.6,84.5 	"/>
	<g>
		<path class="st3" d="M66.6,53.8c0,0,47.1-6.5,62.5-2.4l4.1-4.6l-12.6-27.4c0,0-9.8,11.5-10,22.2C110.7,41.7,73.9,48.3,66.6,53.8z"
			/>
		<path class="st4" d="M92.2,103.7c0,0-7.7,9.7,6.6,34.6l11.9-29.5C110.7,108.8,95.2,103.2,92.2,103.7z"/>
		<path class="st5" d="M28.4,69.8c0,0-20.1,6.2-14.8,12.7c5.3,6.5,21.5,17.1,32.8,18.7c11.3,1.6,62.1-0.2,77.5-1
			c15.4-0.8,72.1,1.8,84.5,7.7c0,0-31-32.1-44.6-41.4C136.5,48,94.3,53.3,94.3,53.3S52,56.6,28.4,69.8z"/>
		<path class="st2" d="M219,107.3c-0.2-0.6-0.3-1.1-0.4-1.6c-0.1-0.2-0.1-0.4-0.2-0.6c-0.1-0.4-0.2-0.6-0.2-0.8
			c0-0.2-0.1-0.3-0.1-0.3c-0.6-21.4,7.4-39.8,11.2-47.2c0.2-0.3,0.1-0.7-0.2-1c-0.1-0.1-0.2-0.1-0.3-0.1c0,0-0.1,0-0.1,0
			c-0.1,0-0.2,0-0.2,0c0,0,0,0-0.1,0c0,0,0,0,0,0c-0.1,0-0.2,0.1-0.3,0.2c0,0,0,0,0,0c-7.7,7-13.9,17.6-18,25.8
			c-3.3,6.7-5.2,11.7-5.2,11.7c-0.1-0.2-0.3-0.3-0.4-0.5c-0.5-0.6-1-1.2-1.5-1.7c-0.3-0.3-0.5-0.6-0.8-0.9c-0.4-0.4-0.8-0.9-1.2-1.3
			c-0.3-0.3-0.6-0.6-0.9-0.9c-0.4-0.4-0.8-0.8-1.2-1.2c-0.3-0.3-0.6-0.6-0.9-0.9c-0.4-0.4-0.8-0.7-1.2-1.1c-0.3-0.3-0.6-0.6-0.9-0.9
			c-0.4-0.4-0.8-0.7-1.2-1.1c-0.3-0.3-0.6-0.6-0.9-0.8c-0.4-0.4-0.8-0.7-1.2-1.1c-0.3-0.3-0.6-0.5-0.9-0.8c-0.4-0.4-0.8-0.7-1.3-1.1
			c-0.3-0.2-0.6-0.5-0.9-0.7c-0.4-0.4-0.9-0.7-1.3-1.1c-0.3-0.2-0.5-0.4-0.8-0.6c-0.5-0.4-0.9-0.7-1.4-1.1c-0.2-0.2-0.5-0.4-0.7-0.6
			c-0.5-0.4-1-0.8-1.6-1.2c-0.2-0.1-0.4-0.3-0.5-0.4c-0.7-0.5-1.4-1-2-1.5c0,0,0,0,0,0c-1.4-1-2.8-2-4.2-2.9c-0.1,0-0.1-0.1-0.2-0.1
			c-0.6-0.4-1.2-0.8-1.8-1.2c-0.1-0.1-0.3-0.2-0.4-0.3c-0.5-0.3-1.1-0.7-1.6-1c-0.2-0.1-0.3-0.2-0.5-0.3c-0.5-0.3-1-0.6-1.5-0.9
			c-0.2-0.1-0.3-0.2-0.5-0.3c-0.5-0.3-0.9-0.6-1.4-0.8c-0.1-0.1-0.3-0.2-0.4-0.3c-0.3-0.2-0.5-0.3-0.8-0.5c0,0,0,0,0,0
			s-8.6-5.9-15.2-9.7c6.7-5.8,14.4-10.4,18.7-12.8c0.4-0.2,0.5-0.6,0.4-1c-0.1-0.4-0.5-0.6-0.9-0.6c-11.9,0.8-22.4,3.4-31.5,6.8
			l-2.1-1.6c-4.3-7.3-12.1-24.5-14.9-31.3c-0.1-0.3-0.3-0.5-0.6-0.5c-0.1,0-0.3,0-0.4,0c-0.1,0-0.3,0.1-0.4,0.2
			c-7,7.3-12.2,26.7-12.4,27.6c-1.4,0.1-2.3,0.1-2.4,0.2l0,0.1c-13.7,1.4-26.4,4.1-37.7,7.5c-8.4,2.5-16,5.3-22.9,8.2c0,0,0,0,0,0
			c-0.4,0.2-0.7,0.3-1.1,0.5c-0.1,0-0.2,0.1-0.2,0.1c-1.5,0.7-3,1.3-4.5,2c-0.1,0-0.2,0.1-0.3,0.1c-0.7,0.3-1.4,0.6-2,0.9
			c0,0-0.1,0-0.1,0c-1.4,0.7-2.8,1.3-4.1,2c-0.1,0-0.2,0.1-0.2,0.1c-1.3,0.7-2.6,1.3-3.8,1.9c0,0,0,0-0.1,0
			c-0.6,0.3-1.1,0.6-1.7,0.9c-0.1,0-0.1,0.1-0.2,0.1c-1.2,0.6-2.3,1.2-3.4,1.8c-0.1,0-0.1,0.1-0.2,0.1c-0.5,0.3-1,0.5-1.4,0.8
			c-0.1,0-0.1,0.1-0.2,0.1c-1,0.6-2,1.1-2.9,1.7c-0.1,0-0.1,0.1-0.2,0.1c-0.4,0.2-0.8,0.5-1.2,0.7c-0.1,0-0.1,0.1-0.2,0.1
			c-0.4,0.3-0.9,0.5-1.3,0.8c0,0,0,0-0.1,0c-0.4,0.2-0.7,0.5-1.1,0.7c-0.1,0.1-0.2,0.1-0.3,0.2c-0.3,0.2-0.6,0.4-0.9,0.6
			c-0.1,0-0.1,0.1-0.2,0.1c-0.3,0.2-0.7,0.4-1,0.6c-0.1,0-0.1,0.1-0.2,0.1c-0.2,0.2-0.5,0.3-0.7,0.5c-0.1,0.1-0.2,0.1-0.3,0.2
			c-0.2,0.2-0.4,0.3-0.7,0.4c-0.1,0-0.1,0.1-0.2,0.1c-0.2,0.2-0.5,0.3-0.7,0.5C10,75.8,9.9,75.9,9.8,76c-0.1,0.1-0.3,0.2-0.4,0.3
			c-0.1,0.1-0.2,0.1-0.3,0.2c-0.1,0.1-0.2,0.2-0.4,0.3c-0.1,0-0.1,0.1-0.2,0.1c-0.1,0.1-0.3,0.2-0.4,0.3c-0.4,0.4-0.6,0.9-0.7,1.4
			c0,0,0,0,0,0c0,0.2,0,0.3,0,0.5c0,0,0,0,0,0c0,0.2,0,0.4,0.1,0.5c0,0,0,0,0,0c0,0,0,0,0,0C7.6,80,7.8,80.3,8,80.5
			c10.9,15,24,16.7,24,16.7c3.6,7.9,33.2,8.4,56.7,7.6c0,0,0,0,0,0c0,0.1-0.1,0.3-0.1,0.4c0,0.1,0,0.2-0.1,0.3
			c0,0.1-0.1,0.2-0.1,0.3c0,0.1,0,0.2-0.1,0.2c0,0.1-0.1,0.2-0.1,0.4c0,0,0,0,0,0c-0.1,0.3-0.1,0.6-0.2,1c0,0.1,0,0.2,0,0.3
			c0,0.2-0.1,0.3-0.1,0.5c0,0.1,0,0.2,0,0.2c-0.1,0.3-0.1,0.7-0.1,1.1c0,0.1,0,0.1,0,0.2c0,0.2,0,0.4-0.1,0.6c0,0.1,0,0.2,0,0.3
			c-0.1,0.7-0.1,1.4-0.1,2.2c0,0.1,0,0.2,0,0.3c0,0.2,0,0.5,0,0.7c0,0.1,0,0.2,0,0.3c0,0.5,0,1,0,1.5c0,0.1,0,0.2,0,0.3
			c0,0.3,0,0.5,0,0.8c0,0.1,0,0.3,0,0.4c0.1,0.9,0.2,1.8,0.3,2.7c0,0.2,0,0.3,0.1,0.5c0,0.3,0.1,0.5,0.1,0.8c0,0.2,0.1,0.3,0.1,0.5
			c0.1,0.5,0.2,0.9,0.3,1.4c0,0.2,0.1,0.4,0.1,0.6c0.1,0.3,0.1,0.5,0.2,0.8c0.1,0.2,0.1,0.4,0.2,0.6c0.1,0.3,0.1,0.5,0.2,0.8
			c0.1,0.4,0.3,0.8,0.4,1.3c1.7,5.2,4.8,10.8,9.8,16.4c0.4,0.4,0.9,0.6,1.5,0.4c0,0,0,0,0,0c0.5-0.2,0.9-0.6,1-1.2
			c0.6-4.6,2.2-13.7,5.8-22.4l0,0c0.2-0.4,0.4-0.9,0.6-1.3c0,0,0,0,0,0c0.2-0.4,0.4-0.9,0.6-1.3c0,0,0,0,0-0.1
			c0.2-0.4,0.4-0.8,0.6-1.2c0,0,0,0,0-0.1c0.8-1.7,1.8-3.3,2.8-4.9c0,0,0,0,0-0.1c0.2-0.3,0.4-0.5,0.5-0.8c0.1-0.2,0.2-0.3,0.3-0.5
			c0.2-0.2,0.3-0.4,0.5-0.7c0.1-0.2,0.3-0.4,0.4-0.5c0.2-0.2,0.3-0.4,0.5-0.6c0.2-0.2,0.3-0.4,0.5-0.6c0.2-0.2,0.3-0.4,0.5-0.5
			c0.2-0.2,0.4-0.4,0.5-0.6c0.2-0.2,0.3-0.3,0.5-0.5c0.2-0.2,0.4-0.4,0.6-0.6c0.2-0.1,0.3-0.3,0.5-0.4c0.2-0.2,0.4-0.4,0.7-0.6
			c0.1-0.1,0.3-0.3,0.4-0.4c0.2-0.2,0.5-0.4,0.8-0.6c0.1-0.1,0.3-0.2,0.4-0.3c0.4-0.3,0.8-0.5,1.2-0.8c48.1-3.8,83.9,6.4,83.9,6.4
			l0,0c2.2,6.3,6.4,13,11,19.2c4.2,5.7,8.9,11,12.7,15.1c1.3,1.4,2.5,2.7,3.6,3.8c0,0,0,0,0,0c0.1,0.1,0.1,0.1,0.2,0.1
			c0,0,0,0,0.1,0c0.1,0,0.1,0,0.2,0c0,0,0,0,0.1,0c0.1,0,0.2,0,0.2,0c0,0,0,0,0,0c0,0,0,0,0,0c0.1,0,0.2-0.1,0.2-0.1
			c0.2-0.1,0.3-0.3,0.3-0.5c0-0.2,0-0.4-0.1-0.5c-6.1-10.9-10.7-25.7-13.2-34.5C219.7,110,219.3,108.5,219,107.3z M120,22.6
			c-1.2,6.2-2.4,13.9-3.1,18.5c-1.3-0.1-2.6-0.2-3.7-0.3C114.4,36.5,117,28.7,120,22.6z M108.8,45.4l0.5,0c3.2-0.1,8.6,0.1,14,1.7
			c1,0.3,2,0.6,2.8,0.9c0.5,0.2,1,0.4,1.5,0.6c0,0,0.1,0,0.1,0.1c-0.3,0.1-0.6,0.3-1,0.5c-6.1-0.6-27.8-2.1-55.5,3.4
			C83.7,48.9,96.3,46.5,108.8,45.4z M46.9,67.1c0,0-2.2,1.7-5.6,3c0.1,0.2,0.2,0.4,0.3,0.6c0.3,1-0.1,2.1-1,2.4
			c-0.9,0.3-1.8-0.4-2.1-1.4c-0.1-0.2-0.1-0.4-0.1-0.5c-1.7,0.5-3.6,0.7-5.5,0.7L46.9,67.1z M98.5,135c-6.5-9.7-6.9-19-6.3-24.6
			c2.6-1.2,7.1-0.6,9.9,1c1.3,0.8,2.3,1.9,3.1,3.1C101.7,121.5,99.7,129,98.5,135z M117.5,98.4c-0.2,0-19.7,1.8-39.8,2.1
			c-32.8,0.4-39.9-3.6-41.4-4.8c2.1-4.2,8.6-7.6,17.7-10.1c-19.3-6.9-24.9,1.2-26.5,5.5c-3.2-1.4-7.5-3.9-11.9-8.5
			c-0.1-0.1-0.2-0.3-0.3-0.5c-1.5-2.1-0.3-3.5,1.1-3.9c3.7-1.1,14.5-2.2,19.1-1.3c4.9,1,13.8,3.5,18.9,3.5c3.9,0,19.3-3.9,30.5-6.7
			c0-0.4-0.1-0.8-0.1-1.2c-0.1-0.7-0.2-1.4-0.2-2.1c-0.1-0.7-0.2-1.4-0.3-2.1c-0.1-0.7-0.3-1.4-0.4-2.1c-0.2-0.7-0.3-1.4-0.5-2
			c-0.1-0.3-0.2-0.6-0.3-1c-0.1-0.3-0.2-0.6-0.3-0.9c-0.2-0.6-0.4-1.1-0.6-1.7c-0.2-0.5-0.4-1-0.6-1.4c-0.2-0.4-0.4-0.8-0.5-1.1
			c-0.3-0.6-0.5-0.9-0.5-0.9s0.3,0.2,0.8,0.7c0.5,0.5,1.1,1.2,1.8,2.2c0.3,0.5,0.7,1,1,1.6c0.2,0.3,0.3,0.6,0.5,0.9
			c0.1,0.3,0.3,0.6,0.4,1c0.3,0.7,0.5,1.4,0.7,2.1c0.2,0.7,0.4,1.5,0.5,2.2c0.1,0.8,0.2,1.5,0.3,2.3c0,0.8,0.1,1.5,0.1,2.2
			c0,0.3,0,0.6,0,0.9c1.5-0.4,2.9-0.7,4.1-1c0-0.1,0-0.3,0-0.4c-0.1-0.7-0.2-1.4-0.2-2.1c-0.1-0.7-0.2-1.4-0.3-2.1
			c-0.1-0.7-0.3-1.4-0.4-2.1c-0.2-0.7-0.3-1.4-0.5-2c-0.1-0.3-0.2-0.7-0.3-1c-0.1-0.3-0.2-0.6-0.3-0.9c-0.2-0.6-0.4-1.1-0.6-1.7
			c-0.2-0.5-0.4-1-0.6-1.4c-0.2-0.4-0.4-0.8-0.5-1.1c-0.3-0.6-0.5-0.9-0.5-0.9s0.3,0.2,0.8,0.7c0.5,0.5,1.1,1.2,1.8,2.2
			c0.3,0.5,0.7,1,1,1.6c0.2,0.3,0.3,0.6,0.5,0.9c0.1,0.3,0.3,0.6,0.4,1c0.3,0.7,0.5,1.4,0.7,2.1c0.2,0.7,0.4,1.5,0.5,2.2
			c0.1,0.8,0.2,1.5,0.3,2.3c0,0.8,0.1,1.5,0.1,2.2c0,0,0,0.1,0,0.1c1.3-0.3,2.4-0.5,3.2-0.7c0-0.2,0-0.4,0-0.6
			c-0.1-0.7-0.2-1.4-0.2-2.1c-0.1-0.7-0.2-1.4-0.3-2.1c-0.1-0.7-0.3-1.4-0.4-2.1c-0.2-0.7-0.3-1.4-0.5-2c-0.1-0.3-0.2-0.6-0.3-1
			c-0.1-0.3-0.2-0.6-0.3-0.9c-0.2-0.6-0.4-1.1-0.6-1.7c-0.2-0.5-0.4-1-0.6-1.4c-0.2-0.4-0.4-0.8-0.5-1.1c-0.3-0.6-0.5-0.9-0.5-0.9
			s0.3,0.2,0.8,0.7c0.5,0.5,1.1,1.2,1.8,2.2c0.3,0.5,0.7,1,1,1.6c0.2,0.3,0.3,0.6,0.5,0.9c0.1,0.3,0.3,0.6,0.4,1
			c0.3,0.7,0.5,1.4,0.7,2.1c0.2,0.7,0.4,1.5,0.5,2.2c0.1,0.8,0.2,1.5,0.3,2.3c0,0.6,0.1,1.2,0.1,1.8c0.1-0.1,0.2-0.2,0.4-0.4l0,0
			c0,0,0,0,0,0c0.7-0.7,1.7-1.7,3-2.8c5.9-5,13.4-8.4,17.7-10c-8.7,5.6-14.7,11.1-17.9,14.2c-0.4,0.4-0.5,1.1-0.3,1.6
			c0.3,0.6,0.8,0.9,1.4,0.9l35.2-2.4c2.1-0.1,4-1.5,4.8-3.4c0-0.1,0.1-0.2,0.2-0.3c0.1-0.2,3.6-4,7.7-6.5c-1.4,1.7-3,4.1-4.8,7.2
			c-0.5,0.9-1,1.7-1.8,2.3c18.7,2.4,32.2,12.6,39.6,17.2c5.4,3.4,17.8,11.3,23.2,16.8C200.7,103.2,164.8,94.2,117.5,98.4z"/>
		<path class="st4" d="M105.6,70.1c0,0,20.5-20.8,52.2-26.6c0,0-30.6,10.1-44.6,25.3L105.6,70.1z"/>
	</g>
	<polygon class="st6" points="204.2,161.3 20.1,161.3 29.8,138.1 20.1,115.3 204.2,115.3 199,138.4 	"/>
	<g>
		<path class="st5" d="M48.2,154.1v-4.2c3.5,1.7,6.8,2.5,9.6,2.5c1.2,0,2.4-0.2,3.5-0.7c1.1-0.5,1.9-1.1,2.5-2
			c0.6-0.9,0.9-1.8,0.9-2.8c0-1.2-0.4-2.3-1.2-3.4c-0.8-1-2.2-2.2-4.4-3.4l-2.3-1.3l-2.3-1.3c-4-2.4-6-5.3-6-8.8
			c0-2.6,0.9-4.8,2.7-6.5c1.8-1.8,4.6-2.6,8.4-2.6c2.4,0,4.8,0.4,7.1,1.1v3.8c-2.5-1-5-1.5-7.4-1.5c-1.9,0-3.4,0.5-4.6,1.5
			c-1.2,1-1.8,2.2-1.8,3.6s0.5,2.6,1.4,3.5c0.9,0.9,2.1,1.8,3.5,2.6l1.7,1l2.1,1.3l1.8,1.1c3.8,2.3,5.6,5.2,5.6,8.7
			c0,2.7-1,4.9-2.9,6.8c-1.9,1.9-5,2.8-9.3,2.8c-1.4,0-2.6-0.1-3.9-0.3C51.8,155.2,50.2,154.8,48.2,154.1z"/>
		<path class="st5" d="M74.7,154.8v-34.3h4.5v14.8h12.7v-14.8h4.4v34.3h-4.4v-16.1H79.1v16.1H74.7z"/>
		<path class="st5" d="M104.1,154.8h-4.3l10.6-34.3h4.5l10.6,34.3h-4.7l-2.4-7.6h-12.1L104.1,154.8z M107.5,143.8h10l-4.1-13l-1-3.5
			l-0.9,3.5L107.5,143.8z"/>
		<path class="st5" d="M134,140.2v14.6h-4.5v-34.3h9.2c3,0,5.2,0.3,6.6,0.9c1.4,0.6,2.5,1.5,3.3,2.8c0.8,1.2,1.2,2.6,1.2,4
			c0,1.3-0.3,2.7-0.8,4c-0.5,1.3-1.2,2.5-2.1,3.6s-2.2,2.1-3.9,3l9.9,16h-5.3l-9.1-14.6H134z M134,136.7h6.3
			c1.4-0.8,2.5-1.5,3.1-2.3s1.2-1.6,1.6-2.5c0.4-0.9,0.5-1.8,0.5-2.7c0-1.6-0.6-2.9-1.8-3.8c-1.2-0.9-3.3-1.4-6.4-1.4H134V136.7z"/>
		<path class="st5" d="M156.9,154.8v-34.3h4.5v16.8l12.8-16.8h4.7l-12.3,16.3l14,18H175l-13.6-17.5v17.5H156.9z"/>
	</g>
	<text transform="matrix(1 0 0 1 -163.3232 98.7871)" class="st5" style="font-family:'Ayuthaya'; font-size:45.3216px;">SHARK</text>
	<path class="st7" d="M237.3,144.7c-6-10.7-10.6-25.6-12.8-33.6c-0.4-1.5-0.8-2.9-1.2-4.3c-0.2-0.6-0.3-1.1-0.4-1.5l-0.1-0.4l0-0.2
		l-0.2-0.6c-0.4-20.3,7.3-37.9,10.7-44.6c1.1-2.3,0.5-5-1.5-6.6l0,0l0,0c-0.6-0.5-1.3-0.8-2-0.9c-0.3-0.1-0.5-0.1-0.6-0.1l0,0l0,0
		c-0.2,0-0.4,0-0.5,0c-0.1,0-0.3,0-0.4,0h-0.4l-0.6,0.2l-0.7,0.2l-0.3,0.2l-0.5,0.2l-0.7,0.7c-8.3,7.5-14.9,18.8-18.9,27
		c-1,2-1.9,3.9-2.6,5.5l-0.2-0.2c-0.4-0.4-0.8-0.8-1.2-1.2c-0.3-0.2-0.5-0.5-0.7-0.7l-0.2-0.2c-0.4-0.4-0.8-0.8-1.2-1.1
		c-0.3-0.3-0.7-0.6-1-0.9c-0.4-0.4-0.8-0.7-1.2-1.1c-0.3-0.3-0.6-0.6-1-0.9c-0.4-0.4-0.8-0.7-1.3-1.1c-0.3-0.3-0.6-0.5-0.9-0.8
		c-0.4-0.4-0.9-0.7-1.3-1.1c-0.3-0.3-0.6-0.5-0.9-0.7c-0.5-0.4-0.9-0.7-1.4-1.1c-0.3-0.2-0.6-0.4-0.8-0.7c-0.5-0.4-1-0.7-1.4-1.1
		l-0.3-0.2l-0.4-0.3c-0.6-0.4-1.1-0.8-1.6-1.2l-0.2-0.2l-0.3-0.2c-0.7-0.5-1.4-1-2.1-1.5c0,0-0.1,0-0.1-0.1c-1.4-1-2.8-2-4.3-3
		l-0.1-0.1l-0.1-0.1c-0.6-0.4-1.2-0.8-1.8-1.2l-0.3-0.2l-0.1-0.1c-0.5-0.3-1.1-0.7-1.6-1l-0.4-0.2l-0.1-0.1c-0.5-0.3-1-0.6-1.5-0.9
		l-0.4-0.2l-0.1-0.1c-0.5-0.3-1-0.6-1.4-0.9l-0.5-0.3c-0.2-0.1-0.4-0.2-0.6-0.4c-0.9-0.6-5.1-3.5-9.7-6.4c5-3.8,10-6.7,13-8.4
		c2.2-1.2,3.3-3.8,2.5-6.2c-0.7-2.3-2.8-3.8-5.1-3.8c-0.1,0-0.2,0-0.4,0c-10.3,0.7-20.5,2.8-30.2,6.1C136,34,129,18.5,126.5,12.3
		c-0.7-1.7-2.1-2.9-4-3.3c-0.3-0.1-0.7-0.1-1-0.1c-0.5,0-1,0.1-1.5,0.2c-0.9,0.3-1.7,0.8-2.4,1.4c-6.1,6.4-10.8,20.2-12.7,26.5
		l-3.9,0.4l0,0.2c-11.4,1.4-22.9,3.8-34.1,7.1c-3.9,1.2-7.8,2.4-11.7,3.8l0.3-0.5l-11.9,5c-0.3,0.1-0.6,0.2-0.9,0.4l-0.2,0.1l-0.1,0
		l-0.2,0.1c-1.5,0.7-3,1.3-4.5,2l-0.3,0.1c-0.7,0.3-1.4,0.6-2,0.9l-0.1,0c-1.4,0.7-2.8,1.3-4.2,2l-0.3,0.1c-1.3,0.6-2.6,1.3-3.9,2
		l0,0l-0.1,0c-0.6,0.3-1.2,0.6-1.7,0.9l0,0L25,62.1c-1.2,0.6-2.3,1.3-3.4,1.9l-0.1,0.1l0,0c-0.5,0.3-1,0.6-1.5,0.8L19.8,65
		c-1,0.6-2,1.2-3,1.7l-0.1,0.1l-0.1,0.1c-0.4,0.3-0.8,0.5-1.2,0.7l-0.1,0l-0.1,0.1c-0.4,0.3-0.9,0.5-1.3,0.8l0,0l0,0
		c-0.4,0.2-0.8,0.5-1.1,0.7l-0.2,0.1l-0.1,0.1c-0.3,0.2-0.6,0.4-0.9,0.6l-0.1,0.1c-0.4,0.2-0.7,0.5-1,0.7l-0.2,0.1
		c-0.3,0.2-0.5,0.3-0.7,0.5l-0.3,0.2c-0.3,0.2-0.5,0.3-0.7,0.5l-0.2,0.1c-0.3,0.2-0.5,0.3-0.7,0.5l-0.3,0.2l0,0l-0.4,0.3l-0.3,0.2
		l-0.4,0.3l-0.1,0.1L6,73.7c-0.4,0.2-0.7,0.5-1,0.9c-1,1-1.7,2.4-1.9,3.8L3,78.8l0,0.1c0,0.3,0,0.7,0,1l0,0.2l0,0.1
		c0,0.2,0.1,0.4,0.1,0.7l0,0.2l0.1,0.4c0.2,0.8,0.6,1.5,1.1,2.2c7.3,10,15.4,14.7,21,16.8v10.7h-5.2h-6.8l2.7,6.3l8.9,21.1L16,160.1
		l-2.6,6.2h6.8h5.2V179v2.6l2.3,1.3l82.9,47.8l2.3,1.3l2.3-1.3l82.9-47.8l2.3-1.3V179v-12.6h4.1h5.6l-1.3-5.5l-5-21.8l3.4-15.1
		c1.5,2.5,3.3,5,5.3,7.7c3.7,5,8.1,10.2,13,15.5c1.2,1.3,2.4,2.6,3.6,3.8l0.3,0.3l0.2,0.2c0.3,0.2,0.6,0.4,0.9,0.6
		c0.2,0.1,0.4,0.2,0.5,0.2c0.4,0.1,0.8,0.2,1.2,0.3l0.1,0l0,0c0.1,0,0.3,0,0.5,0l0.1,0l0.1,0c0.2,0,0.5,0,0.7,0l0.3,0l0.1,0l0,0
		l0.3-0.1l0.1,0l0,0l0,0c0.6-0.2,1.2-0.5,1.7-0.8c1.1-0.8,1.8-2,2-3.3C238.1,146.9,237.9,145.7,237.3,144.7z"/>
</g>
</svg>
